<svg width="17" height="16" viewBox="0 0 17 16" fill="none" xmlns="http://www.w3.org/2000/svg">
<path d="M3.25684 0.5C3.27841 0.5 3.29542 0.502233 3.30957 0.506836L3.34668 0.527344C3.40684 0.572467 3.46008 0.62889 3.50684 0.700195L5.30566 4.11328V4.11426L5.3125 4.12695C5.3413 4.17823 5.35674 4.23173 5.35352 4.29883L5.34375 4.37109C5.32393 4.46526 5.29041 4.54129 5.24316 4.60449L5.19141 4.66309L4.36133 5.49414C4.30983 5.54565 4.27103 5.60168 4.24219 5.65527L4.18066 5.7998C4.15544 5.87556 4.12988 5.97562 4.12988 6.08496V6.13184L4.13867 6.17871C4.1959 6.47886 4.31939 6.79753 4.49121 7.12891V7.12793C4.64388 7.43196 4.86884 7.78562 5.15723 8.18359C5.46077 8.60244 5.88133 9.06992 6.4082 9.58594V9.58691C6.79801 9.98542 7.16174 10.3242 7.49902 10.5996L7.82715 10.8535C8.13092 11.0748 8.40651 11.2587 8.65137 11.4014L8.88574 11.5303C9.08991 11.6345 9.28404 11.7222 9.45801 11.7773L9.625 11.8203L9.83691 11.8633L9.88574 11.873H9.93457C9.99043 11.873 10.0451 11.8642 10.0918 11.8535L10.2031 11.8213C10.2635 11.8011 10.3473 11.7677 10.4287 11.709L10.5088 11.6416L10.5117 11.6387L11.4619 10.6719C11.5719 10.5771 11.6885 10.5342 11.833 10.5342C11.9724 10.5342 12.0251 10.5597 12.0332 10.5645L12.1523 10.6357H12.1709L15.3154 12.4922V12.4932C15.4492 12.576 15.4909 12.6495 15.5068 12.709C15.5152 12.7994 15.4941 12.8687 15.4131 12.9502L13.1592 15.1875L13.1494 15.1973L13.1396 15.208C13.1143 15.2362 13.0821 15.2649 13.042 15.2939L12.8955 15.3799C12.8336 15.4098 12.7748 15.4335 12.7188 15.4512L12.5596 15.4883L12.4785 15.4941C12.445 15.4975 12.3894 15.5 12.3076 15.5C12.2208 15.5 12.0986 15.4925 11.9385 15.4756L11.3408 15.3955C11.0221 15.3467 10.6352 15.2418 10.1768 15.0742L9.69434 14.8857C9.20118 14.6813 8.65044 14.3964 8.04102 14.0283L7.41211 13.6318C6.674 13.1493 5.88448 12.5028 5.04395 11.6865L4.68066 11.3262L4.67578 11.3223L4.12012 10.7549C3.67844 10.289 3.29107 9.83886 2.95703 9.4043L2.7627 9.14551C2.38092 8.62261 2.05782 8.13402 1.79297 7.67871L1.54785 7.23438C1.3174 6.79408 1.13285 6.39063 0.993164 6.02344L0.868164 5.66895C0.753161 5.31161 0.669096 4.99856 0.612305 4.72852L0.564453 4.47266C0.523564 4.21506 0.504555 4.01605 0.500977 3.86914L0.501953 3.73926C0.509374 3.60568 0.512867 3.50006 0.515625 3.43457C0.522933 3.38687 0.535131 3.33685 0.551758 3.28418L0.623047 3.10742C0.679337 2.99082 0.738686 2.91391 0.794922 2.86328L0.804688 2.85449L3.06836 0.59082C3.14295 0.516258 3.20003 0.500042 3.25684 0.5Z" stroke="white"/>
</svg>
